<svg xmlns:xlink="http://www.w3.org/1999/xlink" xmlns="http://www.w3.org/2000/svg" aria-label="More" role="img" viewBox="0 0 24 24" class="x1lliihq x135i0dr x2lah0s x1f5funs x1n2onr6 x1bl4301 x1yxark7" style="--fill: currentColor; --height: 24px; --width: 24px;" width="24"  height="24" ><title fill="#F3F5F7">More</title><circle class="xbh8q5q x73je2i xvlca1e" cx="12" cy="12" r="10" stroke="#F3F5F7" fill="none" stroke-width="2px"></circle><path class="x9fz28n x1iq1zl9" d="M7.5 13.5C6.67157 13.5 6 12.8284 6 12C6 11.1716 6.67157 10.5 7.5 10.5C8.32843 10.5 9 11.1716 9 12C9 12.8284 8.32843 13.5 7.5 13.5Z" fill="#F3F5F7"></path><path class="x9fz28n x1iq1zl9" d="M12 13.5C11.1716 13.5 10.5 12.8284 10.5 12C10.5 11.1716 11.1716 10.5 12 10.5C12.8284 10.5 13.5 11.1716 13.5 12C13.5 12.8284 12.8284 13.5 12 13.5Z" fill="#F3F5F7"></path><path class="x9fz28n x1iq1zl9" d="M16.5 13.5C15.6716 13.5 15 12.8284 15 12C15 11.1716 15.6716 10.5 16.5 10.5C17.3284 10.5 18 11.1716 18 12C18 12.8284 17.3284 13.5 16.5 13.5Z" fill="#F3F5F7"></path></svg>