<?xml version="1.0" ?>
<!-- Uploaded to: SVG Repo, www.svgrepo.com, Generator: SVG Repo Mixer Tools -->
<svg fill="#000000" width="800px" height="800px" viewBox="0 0 32 32" xmlns="http://www.w3.org/2000/svg">
<g data-name="people" id="people-21">
<path d="M16,10a2.75,2.75,0,1,0-2.75-2.75A2.75,2.75,0,0,0,16,10Zm0-3.5a.75.75,0,1,1-.75.75A.74.74,0,0,1,16,6.49Z"/>
<path d="M17.68,10.42H14.32a3.32,3.32,0,0,0-3.51,3.09V17.7a2.4,2.4,0,0,0,1.67,2.22v5.6a1.92,1.92,0,0,0,1.84,2h3.36a1.92,1.92,0,0,0,1.84-2v-5.6a2.4,2.4,0,0,0,1.67-2.22V13.51A3.32,3.32,0,0,0,17.68,10.42Zm-3.2,15.09V18.1h-1c-.4,0-.67-.24-.67-.4V13.51c0-.59.69-1.09,1.51-1.09h3.36c.82,0,1.51.5,1.51,1.09V17.7c0,.16-.27.4-.67.4h-1v1l0,6.41Z"/>
<path d="M6,10.77A1.61,1.61,0,1,0,4.39,9.16,1.61,1.61,0,0,0,6,10.77Z"/>
<path d="M7.2,11.54H4.8A2.63,2.63,0,0,0,2,14v2.86a2,2,0,0,0,1.5,1.84v3.66A1.62,1.62,0,0,0,5,24H7.09a1.62,1.62,0,0,0,1.52-1.72V18.63A2,2,0,0,0,10,16.82V14A2.63,2.63,0,0,0,7.2,11.54ZM6.61,22H5.5V16.77H4.2a.43.43,0,0,1-.2,0V14c0-.17.32-.42.8-.42H7.2c.48,0,.8.25.8.42v2.77a.43.43,0,0,1-.2,0H6.61Z"/>
<path d="M26,10.77a1.61,1.61,0,1,0-1.61-1.61A1.61,1.61,0,0,0,26,10.77Z"/>
<path d="M27.2,11.54H24.8A2.63,2.63,0,0,0,22,14v2.86a2,2,0,0,0,1.5,1.84v3.66A1.62,1.62,0,0,0,25,24h2.07a1.62,1.62,0,0,0,1.52-1.72V18.63A2,2,0,0,0,30,16.82V14A2.63,2.63,0,0,0,27.2,11.54ZM26.61,22H25.5V16.77H24.2a.43.43,0,0,1-.2,0V14c0-.17.32-.42.8-.42h2.4c.48,0,.8.25.8.42v2.77a.43.43,0,0,1-.2,0H26.61Z"/>
</g>
</svg>