<svg width="294" height="346" viewBox="0 0 294 346" fill="none" xmlns="http://www.w3.org/2000/svg">
<path d="M228.774 160.364C227.303 159.65 225.807 158.962 224.293 158.304C221.655 109.095 195.098 80.9226 150.506 80.6342C150.304 80.633 150.103 80.633 149.901 80.633C123.229 80.633 101.047 92.1602 87.3934 113.136L111.918 130.17C122.117 114.501 138.124 111.161 149.913 111.161C150.049 111.161 150.186 111.161 150.32 111.162C165.003 111.257 176.082 115.58 183.253 124.009C188.472 130.145 191.962 138.625 193.69 149.327C180.673 147.087 166.594 146.399 151.544 147.272C109.148 149.745 81.8921 174.78 83.7226 209.568C84.6515 227.214 93.3339 242.395 108.169 252.311C120.713 260.695 136.867 264.795 153.657 263.866C175.83 262.636 193.224 254.07 205.359 238.408C214.575 226.515 220.404 211.101 222.978 191.68C233.544 198.137 241.376 206.634 245.701 216.848C253.055 234.211 253.484 262.744 230.49 286.005C210.344 306.383 186.128 315.199 149.53 315.471C108.933 315.166 78.2304 301.984 58.2684 276.29C39.5755 252.23 29.9149 217.479 29.5545 173C29.9149 128.521 39.5755 93.7689 58.2684 69.7095C78.2304 44.0157 108.933 30.8336 149.529 30.5282C190.421 30.836 221.659 44.0815 242.385 69.8992C252.548 82.5599 260.21 98.4817 265.261 117.046L294 109.282C287.877 86.4319 278.243 66.7414 265.133 50.4115C238.562 17.312 199.701 0.351673 149.63 0H149.429C99.4599 0.350451 61.0342 17.3753 35.2199 50.6012C12.2486 80.1682 0.399395 121.309 0.00124588 172.878L0 173L0.00124588 173.122C0.399395 224.691 12.2486 265.833 35.2199 295.399C61.0342 328.624 99.4599 345.65 149.429 346H149.63C194.055 345.688 225.37 333.912 251.167 307.816C284.917 273.675 283.901 230.881 272.777 204.61C264.796 185.771 249.581 170.47 228.774 160.364ZM152.07 233.382C133.488 234.442 114.184 225.997 113.232 207.91C112.527 194.499 122.659 179.534 153.21 177.752C156.709 177.547 160.142 177.448 163.515 177.448C174.612 177.448 184.994 178.539 194.433 180.628C190.912 225.143 170.262 232.371 152.07 233.382Z" fill="white"/>
</svg>
