<svg width="20" height="19" viewBox="0 0 20 19" fill="none" xmlns="http://www.w3.org/2000/svg">
<path d="M5.41347 4.09536L5.25077 3.36322L3.5137 3.74923C2.77523 3.91334 2.27452 4.60165 2.34576 5.35478L2.5155 7.14914L1.32279 8.51224C0.827942 9.07778 0.827943 9.92222 1.32279 10.4878L2.5155 11.8509L2.34576 13.6452C2.27452 14.3983 2.77523 15.0867 3.5137 15.2508L5.25077 15.6368L6.175 17.1934C6.55878 17.8397 7.36174 18.1022 8.05321 17.8073L9.70508 17.1029L11.3569 17.8073C12.0484 18.1022 12.8514 17.8397 13.2352 17.1934L14.1594 15.6368L15.8965 15.2508C16.6349 15.0867 17.1356 14.3983 17.0644 13.6452L16.8947 11.8509L18.0874 10.4878C18.5822 9.92222 18.5822 9.07778 18.0874 8.51224L16.8947 7.14914L17.0644 5.35477C17.1356 4.60165 16.6349 3.91334 15.8965 3.74923L14.1594 3.36322L13.2352 1.80663C12.8514 1.16025 12.0484 0.897781 11.3569 1.19267L9.70508 1.89714L8.05321 1.19267C7.36174 0.89778 6.55878 1.16026 6.175 1.80663L5.25077 3.36322L5.41347 4.09536ZM8.39352 10.5615L8.92378 11.0795L9.44791 10.5553L12.0957 7.90755L12.1036 7.91578L8.91758 11.1018L7.69463 9.8789L8.39352 10.5615Z" fill="#4192EF" stroke="white" stroke-width="1.5"/>
</svg>
